<svg viewBox="0 0 16 16" fill="none" xmlns="http://www.w3.org/2000/svg">
<path d="M8.00016 1.33334C7.12468 1.33334 6.25778 1.50578 5.44894 1.84081C4.6401 2.17584 3.90517 2.66691 3.28612 3.28596C2.03588 4.53621 1.3335 6.2319 1.3335 8.00001C1.3335 9.76812 2.03588 11.4638 3.28612 12.7141C3.90517 13.3331 4.6401 13.8242 5.44894 14.1592C6.25778 14.4942 7.12468 14.6667 8.00016 14.6667C9.76827 14.6667 11.464 13.9643 12.7142 12.7141C13.9645 11.4638 14.6668 9.76812 14.6668 8.00001H13.3335C13.3335 9.4145 12.7716 10.7711 11.7714 11.7712C10.7712 12.7714 9.41465 13.3333 8.00016 13.3333C6.58567 13.3333 5.22912 12.7714 4.22893 11.7712C3.22873 10.7711 2.66683 9.4145 2.66683 8.00001C2.66683 6.58552 3.22873 5.22897 4.22893 4.22877C5.22912 3.22858 6.58567 2.66668 8.00016 2.66668V1.33334ZM12.5202 2.00001C12.4068 2.00001 12.2868 2.04668 12.2002 2.13334L11.3868 2.94001L13.0535 4.60668L13.8668 3.80001C14.0402 3.62668 14.0402 3.33334 13.8668 3.16668L12.8335 2.13334C12.7468 2.04668 12.6335 2.00001 12.5202 2.00001ZM10.9135 3.41334L6.00016 8.33334V10H7.66683L12.5802 5.08001L10.9135 3.41334Z"/>
</svg>